<svg width="62" height="84" viewBox="0 0 62 84" fill="none" xmlns="http://www.w3.org/2000/svg">
<path d="M8.52011 45.1057C2.66546 37.8642 3.63405 26.7435 7.62177 20.7148C7.18909 9.5569 16.8851 1.46866 23.5013 2.82309C32.2144 -2.70207 39.3713 4.3558 36.0515 10.8358C37.895 15.2838 35.2803 22.0363 32.2144 24.7307C33.9541 29.372 28.7349 39.6555 23.6562 43.4596" fill="white"/>
<path d="M7.6219 20.7196C7.18923 9.56116 16.8852 1.47344 23.5009 2.82734C32.2145 -2.69766 39.3714 4.36058 36.0516 10.84C37.8946 15.2886 35.2805 22.041 32.2145 24.735C33.9542 29.3762 28.735 39.6603 23.6563 43.4644" fill="white"/>
<path d="M8.52011 45.1059C2.66546 37.8644 3.63405 26.7438 7.62177 20.7151L8.52011 45.1059Z" fill="white"/>
<path d="M15.7522 40.1776C17.1721 36.0255 18.1593 28.6525 17.3179 25.3513C18.7378 23.7196 20.1625 21.0491 21.1598 18.2322C21.1598 18.2322 21.5877 20.7526 23.2944 22.0879C23.2944 22.0879 18.7426 28.6147 20.8208 39.5241L15.7565 40.1824L15.7522 40.1776Z" fill="#FFC8E1"/>
<path d="M26.2193 37.3842C24.8654 30.1805 29.2193 19.3605 35.7275 17.3483C37.8951 10.9061 46.3026 8.55007 50.9109 10.6474C57.9454 7.79329 65.4876 15.2557 58.7166 22.7181C59.2243 28.4311 56.3935 36.0303 49.044 38.0473C48.8513 42.7168 43.6273 47.9317 39.3432 48.4814" fill="white"/>
<path d="M49.0442 38.0425C48.851 42.7119 43.627 47.9269 39.3434 48.4772L49.0442 38.0425Z" fill="white"/>
<path d="M50.9103 10.6472C57.9454 7.7931 65.4876 15.2555 58.7165 22.7179C59.2242 28.4315 56.3935 36.0301 49.0439 38.0471" fill="white"/>
<path d="M26.2195 37.3842C24.865 30.1805 29.2194 19.3605 35.7271 17.3483C37.8952 10.9061 46.3028 8.55007 50.911 10.6474" fill="white"/>
<path d="M40.5704 11.2211C38.9904 12.0961 37.5705 13.3041 36.5407 14.8182C36.2916 15.1993 36.0798 15.6085 35.8494 16.0034L35.4263 17.0284L35.3885 17.0428L35.224 17.0992C35.116 17.1412 35.0032 17.1694 34.8994 17.2211C34.6924 17.3153 34.4763 17.4047 34.2741 17.5079C33.8648 17.7149 33.4747 17.955 33.0985 18.2088C31.5939 19.2482 30.3901 20.6303 29.3933 22.1162C28.3917 23.6068 27.611 25.2247 26.9953 26.8984C25.9745 29.6823 25.6409 32.3811 25.6925 34.314C25.7393 36.2559 26.1251 37.4129 26.2193 37.389C26.346 37.3656 26.1629 36.1995 26.2614 34.3236C26.3556 32.4518 26.7648 29.8654 27.7521 27.1757C28.3444 25.5584 29.1017 23.9927 30.0607 22.568C31.0155 21.1476 32.1676 19.8357 33.5593 18.8767C33.9074 18.6367 34.2693 18.4206 34.6408 18.2322C34.8291 18.138 35.0218 18.0582 35.2097 17.9688C35.3039 17.922 35.4071 17.8985 35.5013 17.8608L35.9244 17.7101C36.0564 17.7011 36.0564 17.5643 36.1128 17.4659L36.207 17.2402L36.3289 16.9486L36.5689 16.3653C36.7849 16.0034 36.9781 15.6271 37.2086 15.2791C38.1532 13.8826 39.4747 12.7544 40.9605 11.9359C42.1926 11.2541 43.4762 10.8028 44.671 10.5346C45.87 10.2855 46.9796 10.2105 47.9062 10.2291C49.7726 10.2951 50.8588 10.7933 50.9109 10.6618C50.9343 10.6102 50.6805 10.4596 50.1866 10.2196C49.9418 10.0971 49.6177 10.0221 49.2462 9.9045C48.8748 9.79646 48.4325 9.74005 47.9482 9.66501C46.9748 9.57081 45.7992 9.58944 44.5252 9.81083C43.2506 10.0503 41.8871 10.5064 40.5704 11.2307V11.2211Z" fill="#E3DADA"/>
<path d="M10.4431 43.4606C8.35535 44.0721 6.04191 46.6394 4.36817 49.8368C3.20639 52.0517 2.35062 54.5674 2.08772 56.9511C2.08772 56.9511 -0.71533 61.9452 0.667305 67.8605C2.20481 74.4485 6.45117 76.3761 6.50279 76.4373C11.8354 82.3856 19.9843 83.3685 25.9704 83.3685C31.9559 83.3685 40.1336 82.574 45.4374 76.4373C45.489 76.3761 49.721 74.4485 51.2729 67.8605C52.6646 61.95 49.853 56.9511 49.853 56.9511C49.6508 54.9011 49.0015 52.6345 48.0143 50.5941C46.7919 48.064 45.0612 45.873 43.0298 44.8384" fill="white"/>
<path d="M31.6224 44.2164C33.2775 42.4341 38.2008 37.0877 41.4833 34.737C41.8921 32.1692 42.5083 29.8185 44.3375 27.4013C44.3375 27.4013 42.461 27.6599 41.1773 27.0298C39.353 31.9909 36.6399 36.3405 29.5063 40.4453L31.6224 44.2164Z" fill="#FFC8E1"/>
<path d="M16.9377 45.0679C14.5024 44.325 14.3848 40.7375 15.6258 39.5055C16.8674 38.2782 18.1415 37.5209 20.3187 37.944C18.8658 35.9738 19.7168 33.9143 20.5401 32.8185C21.3629 31.7184 23.9445 32.2496 25.4868 32.4002C29.615 32.8094 32.4271 35.2735 33.1653 38.8892C35.3611 39.2702 36.2925 40.8455 36.4617 41.9269C36.6357 43.0084 35.8832 43.9631 34.2845 45.0727" fill="white"/>
<path d="M33.0197 37.1028C32.3518 35.5083 31.1341 34.1401 29.6339 33.2795C28.8909 32.8426 28.082 32.5227 27.2497 32.3109C26.4269 32.0901 25.5525 32.0102 24.7622 31.916C23.9442 31.8171 23.1071 31.709 22.2279 31.7516C21.7904 31.7798 21.3296 31.8362 20.8783 32.0523C20.6526 32.1513 20.4318 32.3253 20.2577 32.5318C20.1023 32.7202 19.9943 32.8942 19.8767 33.0869C19.4302 33.8442 19.129 34.7186 19.1337 35.6355C19.1337 36.0916 19.2088 36.5477 19.3546 36.9804L19.4818 37.2954L19.51 37.3705V37.3848L19.5286 37.4083L19.543 37.4365H19.369C19.2514 37.4221 19.1337 37.4221 19.0161 37.4269C18.2264 37.4365 17.4456 37.6807 16.8107 38.0618C16.4909 38.2502 16.204 38.4663 15.9411 38.6967C15.8091 38.8095 15.6873 38.9271 15.5649 39.04C15.4473 39.1528 15.3296 39.2704 15.2072 39.4253C14.7421 40.0181 14.6053 40.6812 14.5441 41.2784C14.4973 41.8803 14.5633 42.4396 14.7043 42.9335C14.8549 43.4226 15.0758 43.8361 15.3201 44.1607C15.5787 44.4758 15.8565 44.7014 16.1008 44.8377C16.2232 44.8989 16.336 44.9505 16.4392 45.0021C16.543 45.0351 16.6324 45.0543 16.7027 45.0681C16.8485 45.0963 16.9235 45.0963 16.9331 45.0681C16.9427 45.0399 16.8815 44.9883 16.7639 44.9132C16.6979 44.8754 16.6276 44.8329 16.5473 44.786C16.4675 44.7248 16.3781 44.6546 16.2796 44.579C16.0869 44.4194 15.8799 44.1937 15.6873 43.8973C15.5037 43.5966 15.3483 43.2251 15.2546 42.7924C15.1604 42.3598 15.137 41.8659 15.2024 41.3486C15.2732 40.8457 15.4329 40.2858 15.7761 39.8957C15.8517 39.8015 15.9597 39.6983 16.0774 39.5902C16.195 39.4865 16.3078 39.3784 16.4302 39.2842C16.6697 39.0868 16.9283 38.8989 17.2014 38.7435C17.7468 38.4333 18.3674 38.2406 19.0348 38.2358C19.1337 38.231 19.2327 38.2358 19.336 38.2358H19.4866C19.5946 38.2502 19.7074 38.2736 19.8203 38.2874C20.2716 38.3439 20.7138 38.4237 21.1555 38.4993C20.9251 38.1416 20.6526 37.7611 20.469 37.4317L20.3189 37.1778L20.2434 37.0506C20.2247 37.0182 20.2247 37.0038 20.2152 36.9804L20.1119 36.7217C19.9943 36.3737 19.9331 36.007 19.9331 35.6403C19.9283 34.9022 20.1779 34.1592 20.5632 33.5009C20.6622 33.3407 20.7702 33.1667 20.8783 33.04C20.9677 32.941 21.0757 32.8426 21.2263 32.7766C21.518 32.6356 21.8894 32.5744 22.27 32.5557C23.0411 32.5132 23.8452 32.6164 24.659 32.7154C25.5004 32.8144 26.2763 32.8894 27.0432 33.0917C27.8095 33.2843 28.5477 33.576 29.2246 33.9756C30.5839 34.7611 31.6701 35.9788 32.2768 37.4221C32.422 37.7372 32.521 38.0666 32.6243 38.3864C32.6764 38.5977 32.7281 38.8095 32.7845 39.0213L32.8175 39.148C32.8361 39.1858 32.8175 39.2518 32.8787 39.2422L33.1325 39.2938L33.4662 39.3646C34.0777 39.5195 34.6275 39.7925 35.0553 40.1639C35.488 40.5306 35.8031 40.9915 35.9915 41.4614C36.1889 41.9415 36.2357 42.3784 36.1043 42.7733C35.9771 43.1687 35.7376 43.5072 35.5072 43.7797C35.2719 44.0575 35.0415 44.2831 34.8531 44.4614C34.4726 44.8238 34.2517 45.0308 34.2842 45.0777C34.3124 45.1197 34.5902 45.0021 35.0463 44.7062C35.2719 44.5556 35.5444 44.3581 35.8313 44.0899C36.1181 43.8174 36.4332 43.4694 36.6402 42.9665C36.7392 42.7169 36.8046 42.4258 36.7956 42.1198C36.786 41.8095 36.72 41.5274 36.6168 41.231C36.4193 40.653 36.0569 40.0793 35.5444 39.6089C35.0367 39.1342 34.3736 38.7952 33.6589 38.5977L33.4896 38.5605L33.4614 38.4381L33.3954 38.1698C33.2874 37.8175 33.1794 37.4551 33.0197 37.107V37.1028Z" fill="#E3DADA"/>
<path d="M20.1775 45.7826C20.8358 46.756 23.6947 47.6873 27.485 45.5431C29.0933 47.0476 32.0789 46.8172 33.1231 45.5665" fill="white"/>
<path d="M29.9345 46.159C29.4034 46.1074 28.8765 45.9616 28.4156 45.7125C28.298 45.6561 28.1948 45.5763 28.082 45.5103C28.0208 45.4773 27.9877 45.44 27.9223 45.3879L27.5881 45.1154C27.5365 45.0356 27.4662 45.101 27.405 45.1292L27.2118 45.233L26.9441 45.3741C26.8169 45.44 26.6951 45.5103 26.5679 45.5667C25.5524 46.0372 24.4657 46.3895 23.3657 46.432C22.4583 46.4885 21.6446 46.3474 21.0991 46.1548C20.5397 45.9712 20.2811 45.7221 20.1773 45.7785C20.1353 45.8067 20.1448 45.9243 20.2481 46.0984C20.3561 46.2628 20.5536 46.4837 20.85 46.6625C21.4333 47.0387 22.3827 47.2926 23.4077 47.2314C24.6493 47.1798 25.8297 46.7939 26.9207 46.2862C27.057 46.2202 27.1884 46.15 27.3204 46.0792L27.4188 46.0276C27.4614 46.0042 27.4284 46.0228 27.438 46.018L27.4423 46.0228C27.4896 46.0606 27.5599 46.1266 27.6259 46.1638C27.7621 46.2484 27.8941 46.3474 28.0399 46.4177C28.6088 46.7237 29.2294 46.8929 29.8595 46.9541C30.9031 47.067 31.8531 46.7939 32.4364 46.4225C33.0335 46.051 33.2075 45.6093 33.1229 45.5571C33.0239 45.4821 32.737 45.7311 32.1825 45.9148C31.6322 46.1026 30.8233 46.2484 29.9345 46.1548V46.159Z" fill="#E3DADA"/>
<path d="M27.1604 68.758C26.4457 67.8219 26.8081 65.4712 27.9742 65.0806C29.1306 64.6953 30.2498 66.1104 30.5271 67.3754" fill="#FFC8E1"/>
<path d="M27.1604 68.758C26.4457 67.8219 26.8081 65.4712 27.9742 65.0806C29.1306 64.6953 30.2498 66.1104 30.5271 67.3754" fill="#FFC8E1"/>
<path d="M29.3093 67.6015C27.3014 68.5323 24.8841 68.4429 22.8437 67.578C21.1412 66.8633 20.0173 65.8005 19.8438 65.9602C19.7682 66.031 19.9518 66.4024 20.4079 66.8772C20.8592 67.3524 21.5973 67.9165 22.5287 68.3162C23.6479 68.7957 24.8607 69.0496 26.0789 69.0687C27.3014 69.0921 28.5286 68.8473 29.6478 68.3348C30.5786 67.9117 31.2933 67.2912 31.7026 66.7691C32.1161 66.247 32.2529 65.8522 32.1683 65.7909C31.9751 65.6547 30.9974 66.8537 29.3136 67.6015H29.3093Z" fill="#717171"/>
<path d="M32.784 66.0448C32.5674 65.7298 32.2901 65.4381 31.933 65.2407C31.6222 65.0667 31.3029 65.1933 31.2699 65.4099C31.2369 65.6308 31.3636 65.8378 31.5376 65.9363C31.7638 66.0587 31.9612 66.2609 32.1209 66.4961C32.2523 66.6888 32.4876 66.783 32.6946 66.7074C32.9016 66.6324 32.9671 66.3125 32.7888 66.0448H32.784Z" fill="#717171"/>
<path d="M27.6596 62.1886C27.476 61.7373 26.6766 61.7512 26.6766 61.7512C26.6766 61.7512 26.4696 61.3611 26.0279 61.3611C25.5197 61.3611 25.3414 61.7512 25.3414 61.7512C25.3414 61.7512 24.5793 61.7373 24.3962 62.1886C24.1988 62.6825 24.8055 62.9268 24.8055 62.9268C24.8055 62.9268 24.7533 63.2887 25.1812 63.4867C25.6187 63.6931 26.0279 63.5005 26.0279 63.5005C26.0279 63.5005 26.4792 63.6931 26.9167 63.4867C27.3445 63.2844 27.2456 62.9268 27.2456 62.9268C27.2456 62.9268 27.857 62.6825 27.6548 62.1886H27.6596Z" fill="#FFC8E1"/>
<path d="M28.0067 61.9866C27.7391 61.5167 27.1984 61.3517 26.6811 61.3517L27.0291 61.5492C26.5964 60.8158 25.416 60.7498 25.002 61.5492L25.35 61.3517C24.8423 61.3517 24.25 61.5305 24.0382 62.0334C23.8264 62.5369 24.1372 63.0632 24.6119 63.2751L24.4145 62.927C24.391 63.2468 24.5789 63.5571 24.8327 63.7407C25.0493 63.8956 25.3362 63.9802 25.6039 63.985C25.7125 63.985 26.3096 63.9195 25.9615 63.9052C26.4554 63.9286 26.8833 64.0648 27.3202 63.7125C27.5932 63.4959 27.7109 63.1622 27.6401 62.8238L27.457 63.2751C27.9413 63.0632 28.1856 62.5933 28.0541 62.0856C27.9221 61.5774 27.1462 61.7988 27.2782 62.2969C27.3202 62.4523 27.1654 62.5321 27.0525 62.5837C26.8833 62.6593 26.8359 62.8754 26.8689 63.035C26.9253 63.2985 26.1356 63.1058 25.9849 63.1106C25.8013 63.1154 25.1856 63.3783 25.2186 62.9318C25.2282 62.8046 25.1388 62.6354 25.0211 62.5837C24.5603 62.3815 25.0584 62.1559 25.35 62.1559C25.4863 62.1559 25.6321 62.0808 25.6981 61.9584C25.9381 61.4975 26.258 61.9728 26.4836 62.1042C26.7465 62.2596 27.1324 62.0712 27.3202 62.3959C27.5789 62.8424 28.2702 62.4379 28.0115 61.9914L28.0067 61.9866Z" fill="#F7C6DD"/>
<path d="M20.7087 61.2441C22.3776 61.2441 22.4766 55.6487 20.8263 55.6487C19.0344 55.6487 18.8699 61.2441 20.7087 61.2441Z" fill="#717171"/>
<path d="M20.7084 61.6437C23.0314 61.4463 23.1677 55.2723 20.826 55.2441C18.4844 55.2159 18.2071 61.4511 20.7084 61.6437C21.2257 61.6815 21.2209 60.8822 20.7084 60.8396C19.2885 60.7315 19.5286 55.9541 20.826 56.0483C22.0299 56.1329 21.9357 60.7363 20.7084 60.8396C20.1959 60.8822 20.1911 61.6863 20.7084 61.6437Z" fill="#717171"/>
<path d="M31.1614 61.2441C32.8304 61.2441 32.9294 55.6487 31.279 55.6487C29.4871 55.6487 29.3227 61.2441 31.1614 61.2441Z" fill="#717171"/>
<path d="M31.1618 61.6437C33.4848 61.4463 33.6211 55.2723 31.2794 55.2441C28.8388 55.2159 28.6605 61.4511 31.1618 61.6437C31.6791 61.6815 31.6743 60.8822 31.1618 60.8396C29.7419 60.7315 29.9814 55.9541 31.2794 56.0483C32.4832 56.1329 32.389 60.7363 31.1618 60.8396C30.6493 60.8822 30.6445 61.6863 31.1618 61.6437Z" fill="#717171"/>
</svg>
