<svg width="213" height="140" viewBox="0 0 213 140" fill="none" xmlns="http://www.w3.org/2000/svg">
<path d="M115.38 35.7213C122.391 20.7823 134.274 8.49532 148.145 3.15827C156.957 -0.232046 164.396 -1.05024 171.332 1.47487C178.263 3.99527 181.696 12.2618 178.888 18.0503C183.6 17.5471 188.777 18.7368 191.848 22.6208C195.426 27.1538 195.695 34.0708 192.121 38.6037" fill="#FFC8E1"/>
<path d="M149.688 19.7527C148.333 19.7386 147.068 20.0771 145.823 20.3969C144.572 20.7307 143.358 21.1774 142.169 21.6758C140.979 22.1837 139.836 22.7903 138.727 23.4486C137.622 24.1163 136.569 24.8687 135.558 25.6728C133.893 27.0223 132.591 28.4706 131.753 29.5897C131.556 29.8672 131.372 30.1258 131.208 30.3562C131.057 30.5913 130.94 30.7982 130.841 30.9675C130.648 31.3107 130.568 31.513 130.611 31.5412C130.658 31.5741 130.827 31.433 131.09 31.1509C131.222 31.0098 131.382 30.8358 131.561 30.629C131.753 30.422 131.961 30.1963 132.191 29.9471C133.122 28.9408 134.448 27.6007 136.061 26.2888C137.043 25.5082 138.064 24.7746 139.141 24.1257C140.217 23.4863 141.332 22.8938 142.484 22.4047C143.641 21.9204 144.821 21.4831 146.034 21.1633C147.247 20.853 148.474 20.5332 149.678 20.5473C150.172 20.5568 150.652 20.6132 151.08 20.7448C151.503 20.8765 151.902 21.0881 152.189 21.3326C152.772 21.8451 152.993 22.6351 152.993 23.2417C153.003 23.8718 152.754 24.3326 152.523 24.5866C152.279 24.8358 152.076 24.9298 152.1 24.9957C152.109 25.0239 152.166 25.0285 152.274 25.0098C152.387 25.0003 152.537 24.9392 152.721 24.831C153.078 24.6053 153.497 24.0458 153.562 23.2793C153.638 22.5317 153.464 21.5536 152.693 20.7919C151.926 20.0677 150.797 19.7479 149.688 19.7479V19.7527Z" fill="#EE9DC2"/>
<path d="M134.636 19.4564C132.736 21.2338 131.024 23.2041 129.538 25.3341C128.302 27.1022 127.634 28.7338 127.827 28.8326C128.029 28.9408 128.993 27.516 130.197 25.795C131.654 23.7119 133.328 21.7793 135.186 20.0441C136.724 18.6052 137.993 17.4532 137.861 17.2698C137.734 17.0958 136.215 17.9845 134.641 19.4564H134.636Z" fill="#EE9DC2"/>
<path d="M102.322 35.7213C95.3105 20.7823 83.4282 8.49532 69.5567 3.15827C60.7446 -0.232046 53.3056 -1.05024 46.3697 1.47487C39.4386 3.99527 36.006 12.2618 38.8133 18.0503C34.1016 17.5471 28.9244 18.7368 25.8538 22.6208C22.2754 27.1538 22.0074 34.0708 25.5811 38.6037" fill="#FFC8E1"/>
<path d="M91.2017 25.7715C89.1751 24.0599 86.9649 22.5693 84.6185 21.3279C82.6717 20.2982 80.932 19.8326 80.8612 20.0348C80.7814 20.2464 82.3471 21.0317 84.247 22.0379C86.5418 23.2511 88.7046 24.7088 90.6844 26.3828C92.3251 27.77 93.6375 28.9267 93.8068 28.7715C93.9664 28.6258 92.885 27.1916 91.2017 25.7668V25.7715Z" fill="#EE9DC2"/>
<path d="M175.245 18.7044C177.539 18.0414 180.031 17.7592 182.749 17.9849L175.245 18.7044Z" fill="#FFC8E1"/>
<path d="M44.5033 19.419C41.6585 18.267 38.4938 17.698 34.9484 17.9895L44.5033 19.419Z" fill="#FFC8E1"/>
<path d="M109.306 39.0035C103.391 39.0035 88.4982 36.9486 88.4982 28.2918C88.4982 19.635 97.2772 13.3622 109.682 13.3622C119.486 13.3622 129.257 18.9955 129.257 28.0849C129.257 34.9737 120.511 38.9988 109.306 38.9988V39.0035Z" fill="#FFF0A0"/>
<path d="M0.128906 68.0353C7.06474 88.1558 16.4504 115.434 25.3094 139.161H187.429C195.742 118.067 205.594 88.1558 212.534 68.0353H0.1336H0.128906Z" fill="#FFF0A0"/>
<path d="M4.7843 71.8726C11.5132 90.6765 20.1277 116.374 28.2908 138.249H184.438C192.108 118.792 201.089 91.0245 207.879 71.8726H4.7843Z" fill="#EBC891"/>
<path d="M0.128906 68.0349H212.529L200.646 34.0897H7.47384L0.128906 68.0349Z" fill="#FFF0A0"/>
<path d="M196.194 93.1165C194.942 79.9548 191.049 67.3909 183.098 54.7652C175.701 43.019 168.587 37.4609 156.309 32.5706C148.828 29.5894 139.602 28.5737 131.185 29.5094C120.492 30.6991 118.089 34.1881 118.089 34.1881H124.169C135.864 34.1881 149.378 45.276 154.908 57.2856C160.438 69.295 161.763 82.7435 163.01 95.9004L177.953 87.5066L196.194 93.1213V93.1165Z" fill="#FFC8E1"/>
<path d="M28.0414 82.4285C29.0853 73.0475 31.3283 62.5096 38.9129 50.7872C45.2751 40.9548 50.4758 35.5661 62.7581 31.555C70.2391 29.1099 78.2848 28.7995 86.7115 29.4719C95.3916 30.1679 101.467 34.099 101.467 34.099H95.3868C83.6924 34.099 73.4791 40.6444 67.6154 50.2982C61.7139 60.0179 60.534 73.9177 59.2829 84.7089L44.2124 75.6574L28.0414 82.4237V82.4285Z" fill="#FFC8E1"/>
<path d="M103.887 22.9451C105.533 22.9451 105.628 19.4419 104 19.4419C102.373 19.4419 102.242 22.9451 103.887 22.9451Z" fill="#717171"/>
<path d="M103.888 23.3447C106.046 23.2366 106.22 19.0375 104.001 19.0375C101.833 19.0375 101.673 23.2319 103.888 23.3447C104.405 23.3729 104.4 22.5688 103.888 22.5406C102.745 22.4842 102.872 19.8321 104.001 19.8368C105.153 19.8462 105.007 22.4795 103.888 22.5406C103.375 22.5688 103.371 23.3682 103.888 23.3447Z" fill="#717171"/>
<path d="M114.242 22.9451C115.888 22.9451 115.982 19.4419 114.355 19.4419C112.728 19.4419 112.596 22.9451 114.242 22.9451Z" fill="#717171"/>
<path d="M114.242 23.3447C116.4 23.2366 116.574 19.0375 114.355 19.0375C112.187 19.0375 112.027 23.2319 114.242 23.3447C114.759 23.3729 114.755 22.5688 114.242 22.5406C113.099 22.4842 113.226 19.8321 114.355 19.8368C115.507 19.8462 115.361 22.4795 114.242 22.5406C113.73 22.5688 113.725 23.3682 114.242 23.3447Z" fill="#717171"/>
<path d="M110.702 30.2854C109.728 29.3073 110.222 26.848 111.806 26.4437C113.382 26.0393 114.901 27.5205 115.277 28.8465" fill="#FFC8E1"/>
<path d="M114.205 26.6598C113.861 26.4012 113.471 26.1896 113.039 26.072C112.606 25.9545 112.131 25.945 111.684 26.0626C111.224 26.1802 110.814 26.467 110.523 26.815C110.231 27.163 110.034 27.5721 109.921 27.9953C109.728 28.6959 109.832 29.3918 110.081 29.815C110.325 30.2476 110.636 30.3652 110.702 30.2899C110.786 30.2053 110.669 29.9749 110.612 29.6175C110.546 29.2601 110.551 28.7476 110.697 28.2115C110.866 27.5673 111.308 26.9889 111.891 26.8432C112.503 26.6739 113.18 26.8808 113.72 27.304C114.647 27.9953 115.06 28.9075 115.277 28.851C115.38 28.8276 115.418 28.5266 115.267 28.0893C115.121 27.6567 114.773 27.0971 114.209 26.6645L114.205 26.6598Z" fill="#717171"/>
<path d="M113.574 29.124C112.201 29.5849 110.739 29.8011 109.291 29.787C107.847 29.7682 106.404 29.4485 105.031 28.9547C103.893 28.5503 102.9 28.0754 102.19 27.7134C101.48 27.3512 101.048 27.0973 100.973 27.182C100.902 27.2619 101.222 27.6851 101.89 28.193C102.552 28.6961 103.563 29.2792 104.762 29.7071C106.206 30.2243 107.725 30.5676 109.281 30.5864C110.824 30.6052 112.366 30.3748 113.833 29.8811C115.051 29.472 116.067 28.8466 116.687 28.2776C117.317 27.7086 117.576 27.2478 117.501 27.182C117.412 27.1021 117.017 27.4124 116.344 27.8262C115.677 28.2447 114.712 28.7431 113.574 29.124Z" fill="#717171"/>
<path d="M118.159 27.3795C117.849 27.0409 117.463 26.7588 117.026 26.5801C116.659 26.4296 116.315 26.566 116.287 26.7822C116.259 27.0079 116.466 27.2149 116.72 27.323C117.04 27.45 117.327 27.6616 117.567 27.9202C117.759 28.1318 118.023 28.2352 118.22 28.1412C118.422 28.0472 118.422 27.6663 118.159 27.3795Z" fill="#717171"/>
<path d="M101.142 27.9202C101.376 27.6616 101.668 27.4547 101.988 27.323C102.242 27.2149 102.449 27.0079 102.421 26.7822C102.397 26.566 102.054 26.4296 101.682 26.5801C101.245 26.754 100.86 27.0362 100.549 27.3795C100.286 27.6663 100.286 28.0472 100.488 28.1412C100.686 28.2352 100.949 28.1318 101.142 27.9202Z" fill="#717171"/>
<path d="M143.89 33.1398C142.15 32.1523 140.306 31.4 138.44 30.7463C136.568 30.1022 134.631 29.5755 132.628 29.3874C130.968 29.2228 129.435 29.4203 128.391 29.7495C127.342 30.0786 126.778 30.4689 126.821 30.5582C126.868 30.6711 127.502 30.4783 128.523 30.3043C129.548 30.1304 130.977 30.0316 132.557 30.1868C134.466 30.3655 136.348 30.8733 138.181 31.5081C140.015 32.1476 141.821 32.8906 143.495 33.8404C144.887 34.6257 146.057 35.4674 146.861 36.1304C147.67 36.7934 148.15 37.2495 148.244 37.1696C148.324 37.1084 147.995 36.5113 147.252 35.7166C146.513 34.9172 145.338 33.9532 143.895 33.1398H143.89Z" fill="#EE9DC2"/>
<path d="M78.0447 29.6603C72.9755 30.7277 68.156 32.9471 64.0507 36.1071C62.3583 37.4284 60.9852 38.8155 60.0821 39.8876C59.1933 40.9738 58.7325 41.7121 58.8128 41.7732C58.9065 41.8484 59.5228 41.2419 60.4962 40.2732C61.4882 39.314 62.8894 38.0302 64.5397 36.7419C68.5461 33.6572 73.2581 31.4848 78.2091 30.4408C80.2644 30.0224 82.15 29.7967 83.523 29.665C84.8961 29.5521 85.7567 29.4769 85.7609 29.3594C85.7609 29.2559 84.9051 29.1289 83.4996 29.096C82.0978 29.0819 80.1516 29.2277 78.0447 29.6556V29.6603Z" fill="#EE9DC2"/>
<path d="M85.5588 71.2749C85.5588 77.468 91.4225 84.9117 104.655 84.9117C116.232 84.9117 121.47 76.584 121.47 71.0726" fill="#FFF0A0"/>
<path d="M85.5588 67.1886C85.5588 73.3817 91.4225 81.0506 104.655 81.0506C116.232 81.0506 121.47 72.8266 121.47 67.3158" fill="#FFF0A0"/>
</svg>
