<svg width="56" height="52" viewBox="0 0 56 52" fill="none" xmlns="http://www.w3.org/2000/svg">
<path d="M20.4245 8.87187C19.1126 0.304657 10.456 -1.78313 5.19844 1.69155C-1.48323 6.10714 0.110687 12.8878 2.5939 14.9708C5.29264 17.2326 7.98713 16.8803 10.2207 15.5259C12.3463 14.2374 12.9056 13.4429 14.1845 12.5961C15.0642 12.0177 16.1595 11.4961 17.4713 12.3705" fill="#B4DCE6"/>
<path d="M35.8428 8.87269C37.1546 0.304945 45.8118 -1.78284 51.0688 1.69237C57.7505 6.10797 56.1565 12.8886 53.6739 14.9716C50.9746 17.2334 48.2801 16.8806 46.0465 15.5262C43.8129 14.1723 43.3616 13.4432 42.0827 12.597C41.2035 12.0185 40.1078 11.4964 38.7959 12.3713" fill="#B4DCE6"/>
<path d="M46.2916 24.1784C46.2916 14.9949 41.3965 8.80661 33.8309 6.83644C33.643 6.25848 33.2806 5.77844 32.7963 5.49159C31.8607 4.93704 30.9533 5.03071 30.1726 5.38355C29.8905 4.32077 28.8181 4.08607 28.188 4.00092C27.5579 3.91205 26.7777 4.09512 26.204 4.36814C25.1785 4.86148 24.2945 5.6422 23.674 6.59216C15.6049 8.19566 10.3197 14.186 10.3197 24.1784C1.93074 28.2225 -0.406119 43.8009 12.3979 47.1771C17.4622 49.2883 23.4105 51.4751 28.9219 51.4751C35.1523 51.4751 40.71 49.5001 43.7903 47.4687C56.5895 44.0925 54.7556 28.462 46.2964 24.1784H46.2916Z" fill="#B4DCE6"/>
<path d="M36.1492 50.1859C33.535 50.8256 30.8262 51.1407 28.1413 51.0561C25.4564 50.9523 22.7949 50.3834 20.1994 49.6122C18.0456 48.9731 16.127 48.2908 14.721 47.8161C13.3197 47.3414 12.4357 47.0732 12.3937 47.1764C12.3511 47.2754 13.1553 47.7267 14.5145 48.343C15.8732 48.9539 17.7821 49.7299 19.9689 50.3786C22.607 51.1593 25.3292 51.7474 28.1083 51.8554C30.8826 51.9448 33.6526 51.6202 36.3376 50.9619C38.5664 50.4212 40.4988 49.617 41.8154 48.8927C43.1368 48.1737 43.842 47.5436 43.7808 47.4632C43.7153 47.36 42.916 47.8113 41.5663 48.3802C40.2167 48.9539 38.3168 49.65 36.1444 50.1769L36.1492 50.1859Z" fill="#5DA279"/>
<path d="M23.2651 22.4188C23.2651 22.9361 23.3875 23.4347 23.7494 23.4347C24.1113 23.4347 24.2337 22.9126 24.2337 22.4188C24.2337 21.9254 24.0597 21.3986 23.7494 21.3986C23.4392 21.3986 23.2651 21.9015 23.2651 22.4188Z" fill="#717171"/>
<path d="M22.8606 22.4193C22.8701 22.9786 23.0202 23.8344 23.7445 23.8344C24.4688 23.8344 24.6333 22.9786 24.6285 22.4193C24.6237 21.8594 24.4497 21.06 23.7961 21.0036C23.058 20.9424 22.8749 21.8642 22.8558 22.4193C22.8419 22.9365 23.6461 22.9365 23.6599 22.4193C23.6599 22.2873 23.6695 22.1606 23.7025 22.0286C23.7163 21.9818 23.8057 21.8269 23.8009 21.7844C23.6599 21.7375 23.6269 21.7561 23.7115 21.836L23.7541 21.935C23.8057 22.0664 23.8196 22.217 23.8244 22.3581C23.8244 22.4193 23.8244 23.002 23.7397 23.0164C23.7163 23.0164 23.6647 22.4991 23.6647 22.4193C23.6551 21.902 22.851 21.902 22.8606 22.4193Z" fill="#717171"/>
<path d="M32.4298 22.4188C32.4298 22.9361 32.5522 23.4347 32.9141 23.4347C33.276 23.4347 33.3984 22.9126 33.3984 22.4188C33.3984 21.9254 33.2244 21.3986 32.9141 21.3986C32.6038 21.3986 32.4298 21.9015 32.4298 22.4188Z" fill="#717171"/>
<path d="M32.0249 22.4193C32.0344 22.9786 32.1851 23.8344 32.9088 23.8344C33.6188 23.8344 33.7976 22.9786 33.7928 22.4193C33.7885 21.8594 33.6145 21.06 32.9605 21.0036C32.2223 20.9424 32.0392 21.8642 32.0201 22.4193C32.0062 22.9365 32.8104 22.9365 32.8242 22.4193C32.8242 22.2873 32.8338 22.1606 32.8668 22.0286C32.8806 21.9818 32.97 21.8269 32.9652 21.7844C32.8242 21.7375 32.7912 21.7561 32.8758 21.836L32.9184 21.935C32.97 22.0664 32.9844 22.217 32.9892 22.3581C32.9892 22.4193 32.9892 23.002 32.904 23.0164C32.8806 23.0164 32.829 22.4991 32.829 22.4193C32.8194 21.902 32.0158 21.902 32.0249 22.4193Z" fill="#717171"/>
<path d="M20.8011 15.9349C21.4786 14.6092 21.9911 14.1904 23.4392 13.8285L20.8011 15.9349Z" fill="white"/>
<path d="M22.4467 13.7158C22.1503 13.8334 21.8448 13.993 21.5766 14.2048C21.3089 14.4209 21.0875 14.6796 20.9092 14.943C20.608 15.3895 20.6032 15.8365 20.7959 15.9307C20.9981 16.034 21.3227 15.7567 21.5675 15.3943C21.8634 14.9478 22.2349 14.6466 22.7384 14.4587C23.1423 14.299 23.4856 14.0404 23.4292 13.8238C23.3775 13.6125 22.9406 13.5183 22.4419 13.7158H22.4467Z" fill="#717171"/>
<path d="M35.8346 15.9349C35.1577 14.6092 34.6452 14.1904 33.1965 13.8285L35.8346 15.9349Z" fill="white"/>
<path d="M33.8921 14.4633C34.3956 14.6559 34.767 14.9524 35.0629 15.3989C35.3125 15.7613 35.6324 16.0386 35.8346 15.9348C36.0272 15.8363 36.0225 15.3893 35.7212 14.9476C35.543 14.6841 35.3216 14.4255 35.0539 14.2094C34.7856 13.9976 34.485 13.838 34.1837 13.7203C33.6856 13.5229 33.2481 13.6214 33.1965 13.8284C33.1401 14.0492 33.4834 14.3031 33.8878 14.4633H33.8921Z" fill="#717171"/>
<path d="M38.9419 35.3979C38.6035 29.6045 34.6818 25.7253 28.3199 25.7253C21.9576 25.7253 18.0359 29.6045 17.6974 35.3979C17.3962 40.5139 20.2508 42.5782 21.7037 43.6879C23.1566 44.7975 25.9591 45.5122 28.3199 45.4792C30.6802 45.5074 33.4779 44.7927 34.9356 43.6879C36.3933 42.5782 39.2432 40.5187 38.9419 35.3979Z" fill="white"/>
<path d="M26.2329 28.9178C26.2701 29.2329 26.4963 29.6092 26.8582 29.6512C26.8816 29.9854 27.0136 30.2345 27.3425 30.4085C27.6762 30.5825 28.2408 30.5357 28.4383 30.3899C28.6309 30.5357 29.1998 30.5873 29.5335 30.4085C29.8677 30.2345 29.9992 29.9854 30.0178 29.6512C30.3802 29.6092 30.6059 29.2329 30.6437 28.9178C30.6905 28.5182 30.178 27.9445 29.4681 28.0855C29.2797 27.78 28.7581 27.465 28.4383 27.465C28.1184 27.465 27.5963 27.78 27.4085 28.0855C26.7076 27.987 26.1812 28.5182 26.2329 28.9178Z" fill="#717171"/>
<path d="M25.8467 29.0218C25.9643 29.5391 26.2464 29.8776 26.7541 30.0377L26.472 29.7552C26.6226 30.7849 27.7652 31.1804 28.6396 30.7285H28.2357C29.1101 31.1804 30.2575 30.7807 30.4033 29.7552L30.1213 30.0377C30.7982 29.8259 31.2639 29.083 30.9206 28.3965C30.7844 28.1234 30.5348 27.917 30.2623 27.7946C30.0553 27.7004 29.8248 27.7286 29.6226 27.6487C29.4863 27.5923 29.3219 27.3901 29.1947 27.3103C28.9031 27.1362 28.5742 27.033 28.2357 27.0846C27.803 27.1549 27.5912 27.4891 27.2341 27.6439C26.5566 27.9452 25.8653 27.9824 25.8185 28.9138C25.7903 29.431 26.5944 29.4263 26.6226 28.9138C26.646 28.4385 27.3703 28.5471 27.6428 28.3965C27.9393 28.232 28.0803 27.8323 28.4986 27.8696C28.861 27.9026 28.9834 28.2975 29.2607 28.4295C29.3921 28.4907 29.5332 28.4385 29.6556 28.4859C29.8674 28.4295 29.9845 28.5327 30.0036 28.7914C30.2527 29.0218 30.2197 29.1814 29.9094 29.2661C29.787 29.3039 29.6508 29.4119 29.6274 29.5487C29.5193 30.3054 28.9174 29.9904 28.4331 29.9904C27.9488 29.9904 27.3656 30.4044 27.2384 29.5487C27.2197 29.4119 27.0787 29.3086 26.9563 29.2661C26.7354 29.1958 26.6178 29.0452 26.613 28.81C26.4954 28.3071 25.7243 28.5189 25.8371 29.0218H25.8467Z" fill="#717171"/>
<path d="M29.5275 38.6188C29.5605 40.0483 31.1123 40.9322 32.3912 40.7252C33.9292 40.4809 34.8036 39.2255 34.3614 37.7114C34.1783 37.0856 33.562 36.3948 32.7909 36.1595" fill="#FFC8E1"/>
<path d="M31.8655 36.7993C31.0757 37.5848 30.0646 38.1537 28.9832 38.4027C27.8874 38.6566 26.7166 38.6896 25.6538 38.398C24.7698 38.1537 24.0881 37.7066 23.6602 37.2883C23.2323 36.87 23.0114 36.5316 22.8938 36.5832C22.8044 36.6162 22.8417 37.0579 23.2179 37.6502C23.4111 37.9419 23.6932 38.2617 24.0785 38.5299C24.4595 38.7976 24.9252 39.0281 25.4329 39.1691C26.6697 39.5081 27.9486 39.4607 29.162 39.1835C30.3935 38.8966 31.5318 38.2569 32.4296 37.3634C32.8011 36.9919 33.1023 36.5832 33.3232 36.1883C33.5302 35.7838 33.6851 35.398 33.7463 35.0547C33.8873 34.3778 33.7888 33.9499 33.6899 33.9451C33.568 33.9355 33.4642 34.3262 33.2104 34.8759C33.0927 35.1585 32.9049 35.464 32.6931 35.7977C32.4674 36.1223 32.1901 36.4608 31.8655 36.7902V36.7993Z" fill="#717171"/>
<path d="M34.7046 33.9203C34.5636 33.7558 34.404 33.5957 34.1831 33.4594C33.9292 33.304 33.6424 33.2758 33.4072 33.2902C33.0027 33.3232 32.7957 33.6191 32.8851 33.8165C32.9745 34.0187 33.2379 34.1034 33.4588 34.0895C33.595 34.0799 33.6988 34.1034 33.7738 34.1459C33.8771 34.2071 33.9899 34.3152 34.0937 34.4376C34.2629 34.6398 34.5264 34.7431 34.7238 34.6398C34.9212 34.536 34.9399 34.1976 34.7046 33.9155V33.9203Z" fill="#717171"/>
</svg>
