<svg width="72" height="64" viewBox="0 0 72 64" fill="none" xmlns="http://www.w3.org/2000/svg">
<path d="M10.3366 26.258C5.86954 25.6795 2.13126 21.885 1.1814 17.4694C0.231544 13.0538 1.89145 8.27635 5.05603 5.06511C8.26765 1.80171 13.1063 0.0758198 17.5734 1.03962C22.0406 2.00395 25.8775 5.84052 26.4043 10.3971" fill="#FFC8E1"/>
<path d="M62.3342 26.258C66.8014 25.6795 70.5395 21.885 71.4895 17.4694C72.4389 13.0538 70.779 8.27635 67.6146 5.06511C64.4028 1.80171 59.5647 0.0758198 55.0974 1.03962C50.6302 2.00395 46.7931 5.84052 46.2662 10.3971" fill="#FFC8E1"/>
<path d="M64.2338 29.5596C63.1289 22.5155 59.7527 16.2191 55.4452 12.1378C50.4564 7.41191 44.4655 4.84888 36.0297 4.84888C27.5939 4.84888 21.5986 7.41191 16.6143 12.1378C12.3023 16.2239 9.77722 24.904 8.51231 29.5596C6.71132 31.4824 4.35083 36.9134 4.35083 42.7255C4.35083 51.2038 12.0766 63.4815 36.3496 63.4815C60.6223 63.4815 68.3482 50.2209 68.3482 42.7255C68.3482 37.022 66.0443 31.4824 64.2434 29.5596H64.2338Z" fill="#FFC8E1"/>
<path d="M28.3182 6.15602C30.7306 5.54932 33.2229 5.26726 35.7152 5.25342C38.2074 5.23427 40.7087 5.46045 43.1307 6.01499C47.1605 6.91333 50.1509 8.52587 50.2685 8.3098C50.3201 8.22039 49.6336 7.69831 48.4016 7.06394C47.1743 6.42903 45.3782 5.69993 43.309 5.23426C40.8168 4.66109 38.2542 4.43066 35.7056 4.44928C33.1569 4.46312 30.5992 4.75476 28.1208 5.37583C26.0612 5.88833 24.2839 6.65468 23.0754 7.32684C21.8622 7.99474 21.1898 8.53544 21.2415 8.62006C21.3638 8.83666 24.3074 7.13419 28.3182 6.15123V6.15602Z" fill="#EE9DC2"/>
<path d="M63.4867 27.8232L63.6745 28.7684L63.7592 29.2436L63.8582 29.8264L64.2722 30.3107L64.5729 30.7295C64.7607 31.0206 64.9539 31.3122 65.1184 31.6183C65.4664 32.2244 65.7623 32.8689 66.0401 33.5176C66.5808 34.8247 67.0135 36.1839 67.3286 37.5666C67.9959 40.3691 68.0997 42.7198 68.344 42.7246C68.5462 42.7437 68.8001 40.2935 68.1136 37.3877C67.7847 35.9631 67.3424 34.5666 66.7831 33.2122C66.501 32.5352 66.1902 31.8721 65.8235 31.2276C65.6495 30.9035 65.443 30.5885 65.2408 30.2777L64.9066 29.8216L64.6197 29.4831L64.4696 28.6225L64.2765 27.6587C63.971 26.2149 63.5761 24.9313 63.1903 24.0335C62.8097 23.1351 62.4569 22.6322 62.3627 22.679C62.2594 22.7307 62.4191 23.2996 62.6543 24.2165C62.8944 25.1335 63.195 26.4081 63.4915 27.8232H63.4867Z" fill="#EE9DC2"/>
<path d="M34.3836 19.0356C33.1893 19.3087 31.8822 19.1863 30.7487 18.6876C30.175 18.4433 29.6486 18.1049 29.1734 17.7004C28.6939 17.2911 28.3134 16.835 28.0638 16.2848C27.6407 15.3822 27.6125 14.437 27.6833 13.7648C27.7439 13.0826 27.8711 12.6547 27.7583 12.6031C27.6737 12.561 27.349 12.9181 27.1282 13.6515C26.8977 14.3667 26.8227 15.5136 27.34 16.6238C27.6359 17.2821 28.125 17.8648 28.6566 18.3119C29.1878 18.768 29.7897 19.1485 30.4336 19.4263C31.7268 19.9904 33.1893 20.1362 34.5767 19.8164C35.1781 19.6753 35.6911 19.3651 36.086 19.0266C36.4761 18.6738 36.7491 18.2837 36.9136 17.9308C37.2473 17.2065 37.1297 16.6844 37.0312 16.694C36.9088 16.6844 36.8194 17.1128 36.4197 17.6488C36.0344 18.1751 35.3287 18.8148 34.3836 19.0452V19.0356Z" fill="#EE9DC2"/>
<path d="M43.2287 17.9258C42.4576 18.0998 41.63 18.1046 40.8397 17.9822C40.05 17.8555 39.3022 17.5543 38.6019 17.136C37.4401 16.4495 36.5657 15.7395 36.4012 15.8902C36.232 16.0312 36.909 17.061 38.1926 17.8225C38.9542 18.2786 39.8147 18.6267 40.7131 18.7725C41.6066 18.9087 42.514 18.9087 43.4123 18.7065C44.1505 18.5373 44.7992 18.1658 45.1239 17.7427C45.4575 17.3196 45.4576 16.962 45.3634 16.9338C45.2505 16.887 45.0722 17.1078 44.7332 17.3287C44.3996 17.5591 43.8684 17.7757 43.2287 17.9258Z" fill="#EE9DC2"/>
<path d="M60.4948 18.0287C62.0653 17.7136 63.3495 16.3501 63.6927 14.7748C64.0498 13.1197 63.4245 11.3284 62.2393 10.1198C61.036 8.89679 59.2207 8.24805 57.5422 8.61047C56.291 8.87817 55.1766 9.7483 54.6077 10.8813C54.9935 11.2108 55.3788 11.5492 55.7503 11.9063C57.688 13.7451 59.2489 15.8472 60.4948 18.0287Z" fill="#50BE82"/>
<path d="M16.9194 11.9111C17.2956 11.5535 17.6764 11.215 18.062 10.8856C17.4931 9.75253 16.3739 8.88239 15.1278 8.6147C13.4491 8.25228 11.6387 8.90155 10.4303 10.124C9.24531 11.3278 8.61987 13.1192 8.97724 14.7791C9.31582 16.3544 10.6043 17.7184 12.1748 18.0334C13.4209 15.8514 14.982 13.7493 16.9194 11.9111Z" fill="#50BE82"/>
<path d="M14.3411 36.2694C14.2048 37.2284 12.3474 37.3178 12.5684 36.0389C12.7894 34.7596 14.4775 35.3098 14.3411 36.2694Z" fill="#717171"/>
<path d="M19.0763 36.2454C18.9399 37.205 17.0825 37.2939 17.3035 36.015C17.5245 34.7361 19.2127 35.2864 19.0763 36.2454Z" fill="#717171"/>
<path d="M58.429 36.0479C58.5748 37.0026 60.4369 37.0777 60.1969 35.7988C59.9574 34.5199 58.2784 35.0889 58.429 36.0479Z" fill="#717171"/>
<path d="M53.6943 36.0712C53.8402 37.0259 55.7023 37.101 55.4623 35.8221C55.227 34.5475 53.5437 35.1122 53.6943 36.0712Z" fill="#717171"/>
<path d="M16.9506 39.2734C16.8143 40.2324 14.9569 40.3218 15.1779 39.043C15.3989 37.7641 17.087 38.3144 16.9506 39.2734Z" fill="#717171"/>
<path d="M56.3042 39.0717C56.4495 40.0265 58.3116 40.1015 58.0721 38.8227C57.8369 37.5481 56.1536 38.1122 56.3042 39.0717Z" fill="#717171"/>
<path d="M27.9174 22.0452C34.6464 21.4385 32.9158 34.3228 27.1745 34.6752C20.1446 35.103 21.5599 22.6189 27.9174 22.0452Z" fill="white"/>
<path d="M30.8989 23.0185C30.198 22.3177 29.215 21.9276 27.9175 22.0452C25.8388 22.233 24.292 23.6907 23.3892 25.5528C24.7387 25.3884 26.281 25.3176 27.7291 25.332C29.5397 25.3506 31.2044 25.5108 32.1729 25.8019C31.9989 24.6875 31.5854 23.7051 30.9031 23.0185H30.8989Z" fill="#64D296"/>
<path d="M27.729 25.3366C27.1457 26.2296 26.704 27.2876 26.5348 28.327C26.0691 31.1343 26.9956 33.758 28.5001 34.3503C31.2133 33.1561 32.6661 28.9667 32.1776 25.8017C31.2085 25.5149 29.5443 25.3552 27.7338 25.3318L27.729 25.3366Z" fill="#64D296"/>
<path d="M30.0384 24.9507C28.543 24.8241 27.0528 24.8097 25.5621 24.8805C24.3253 24.9369 23.3472 25.285 23.3848 25.5526C23.4225 25.8209 24.4099 25.9193 25.6042 25.8629C27.0528 25.7975 28.5105 25.8065 29.9447 25.9337C31.1342 26.0279 32.0746 26.0513 32.164 25.8022C32.2582 25.534 31.28 25.0449 30.0336 24.9507H30.0384Z" fill="#70706F"/>
<path d="M45.7155 21.955C52.4446 21.3483 50.7144 34.2326 44.9726 34.5849C37.9429 35.0128 39.3585 22.5287 45.7155 21.955Z" fill="white"/>
<path d="M48.7016 22.9287C48.0012 22.2278 47.0183 21.8377 45.7203 21.9553C43.6421 22.1432 42.095 23.6009 41.1924 25.463C42.542 25.2985 44.0843 25.2278 45.5324 25.2421C47.3429 25.2608 49.0076 25.4209 49.9762 25.7121C49.8022 24.5976 49.3881 23.6152 48.7064 22.9287H48.7016Z" fill="#64D296"/>
<path d="M45.527 25.2415C44.9437 26.135 44.502 27.193 44.3327 28.2324C43.8671 31.0397 44.7936 33.6634 46.2981 34.2557C49.0112 33.0615 50.4641 28.8716 49.975 25.7072C49.0064 25.4203 47.3423 25.2606 45.5318 25.2367L45.527 25.2415Z" fill="#64D296"/>
<path d="M48.7207 23.3233C46.8346 22.9284 44.7942 25.4722 44.3333 28.237C43.858 31.0911 44.6904 33.5552 46.2375 34.0916" fill="#64D296"/>
<path d="M52.2463 43.947C51.7104 36.9832 45.8887 32.342 36.494 32.3936C27.0986 32.4404 21.3243 37.1381 20.8587 44.1072C20.445 50.2619 24.6724 52.7212 26.8304 54.0474C28.989 55.3736 33.1268 56.2103 36.611 56.1538C40.1001 56.173 44.224 55.2933 46.373 53.9484C48.5172 52.6041 52.721 50.1023 52.2463 43.9517V43.947Z" fill="white"/>
<path d="M38.5298 40.1392C37.2834 40.5389 35.9007 40.5437 34.6549 40.144C34.1988 39.9886 33.7757 39.8476 33.3286 39.6927C32.9811 39.5751 32.7177 39.5325 32.6331 39.6411C32.5532 39.7443 32.6703 39.9934 32.9667 40.285C33.268 40.5719 33.7565 40.8821 34.3584 41.0796C35.8071 41.5405 37.3871 41.5357 38.8352 41.0705C39.4323 40.8726 39.9262 40.5575 40.2221 40.2707C40.5186 39.9748 40.6362 39.7299 40.5516 39.6267C40.4669 39.5187 40.2035 39.5607 39.8554 39.6783C39.4089 39.8337 38.9858 39.9748 38.5298 40.1344V40.1392Z" fill="#70706F"/>
<path d="M41.1819 39.9083C40.9041 39.6545 40.6881 39.3298 40.5561 38.977C40.448 38.6949 40.2128 38.4693 39.9355 38.4879C39.6679 38.5023 39.4747 38.8924 39.6301 39.3202C39.8179 39.8189 40.1192 40.2702 40.5093 40.6321C40.8429 40.9381 41.2804 40.9099 41.3932 40.6651C41.5108 40.416 41.3932 40.1105 41.1771 39.9083H41.1819Z" fill="#70706F"/>
<path d="M47.8397 24.8613C46.3448 24.7341 44.8541 24.7203 43.3634 24.7905C42.1266 24.8469 41.1532 25.195 41.1862 25.4632C41.224 25.7309 42.2112 25.8299 43.4055 25.7735C44.8541 25.7075 46.3118 25.717 47.746 25.8437C48.9355 25.9379 49.8759 25.9613 49.9653 25.7123C50.0595 25.444 49.0813 24.9555 47.8354 24.8613H47.8397Z" fill="#70706F"/>
<path d="M33.4943 33.0858C33.5459 33.4951 33.8375 33.9794 34.3075 34.031C34.3404 34.4636 34.5097 34.7835 34.9424 35.0044C35.3702 35.23 36.1041 35.1598 36.358 34.9714C36.6118 35.1598 37.3452 35.221 37.7731 34.9905C38.201 34.7601 38.3702 34.445 38.3984 34.0123C38.8689 33.9511 39.1557 33.4669 39.2026 33.0576C39.2638 32.5403 38.5916 31.8022 37.6794 31.99C37.4346 31.5951 36.7577 31.1907 36.3436 31.1907C35.9301 31.1907 35.2574 31.6047 35.0179 32.0044C34.11 31.882 33.4379 32.5733 33.5038 33.0906L33.4943 33.0858Z" fill="#717171"/>
<path d="M33.0189 33.2182C33.1738 33.8717 33.5314 34.3092 34.1753 34.5066L33.8321 34.1634C34.0295 35.4704 35.4829 35.9829 36.6016 35.3954H36.1035C37.2227 35.9643 38.6803 35.456 38.8634 34.1394L38.5202 34.4827C40.0672 33.9893 39.9736 31.9766 38.4307 31.5253C38.0172 31.4029 37.923 31.4215 37.5516 31.1724C37.2179 30.9468 36.8746 30.7446 36.4606 30.7068C35.6942 30.6413 35.0173 31.1724 34.5798 31.7461L35.0029 31.5019C34.0109 31.4737 33.0423 32 32.9955 33.0772C32.9673 33.7115 33.9497 33.7115 33.9827 33.0772C34.0061 32.5737 34.7118 32.5689 35.0029 32.4843C35.1301 32.447 35.1913 32.4422 35.2993 32.381C35.6846 32.1602 35.8869 31.6381 36.4233 31.6897C36.8932 31.7323 37.0534 32.2448 37.4153 32.4093C37.5798 32.4843 37.7538 32.4188 37.914 32.4752C38.196 32.3997 38.3509 32.5359 38.3791 32.8888C38.7133 33.199 38.6708 33.4108 38.2525 33.5332C38.1019 33.5801 37.9326 33.7073 37.9092 33.8765C37.7682 34.8685 36.9827 34.4736 36.3477 34.4736C35.7038 34.4736 34.9465 35.0191 34.7772 33.8951C34.7538 33.7259 34.5846 33.5987 34.434 33.5519C34.2791 33.3496 34.1189 33.1522 33.9641 32.95C33.8182 32.3342 32.8683 32.5929 33.0141 33.2134L33.0189 33.2182Z" fill="#717171"/>
<path d="M1.18067 17.4737C-1.15634 9.13644 6.12745 0.38135 14.6385 0.423393C17.3893 0.37177 20.1636 1.38294 22.1903 3.22592C19.952 1.69799 17.2765 0.978472 14.6621 1.15676C6.58359 1.56601 0.023952 9.42329 1.18067 17.4737Z" fill="#D7AABE"/>
</svg>
