<svg width="217" height="107" viewBox="0 0 217 107" fill="none" xmlns="http://www.w3.org/2000/svg">
<path d="M4.29786 105.159H212.17L216.045 11.1237H216.331H0L4.29786 105.159Z" fill="#FFF0A0"/>
<path d="M126.35 3.34618C123.543 2.78205 120.674 3.34618 118.634 5.24131C116.593 7.13165 115.925 10.5925 117.651 12.8261C120.115 16.0139 127.516 16.1459 130.394 13.5174C134.48 9.78356 131.339 4.34776 126.35 3.35097V3.34618Z" fill="#B4DCE6"/>
<path d="M97.1109 3.34618C99.9182 2.78205 102.787 3.34618 104.827 5.24131C106.868 7.13165 107.536 10.5925 105.81 12.8261C103.346 16.0139 95.9449 16.1459 93.0668 13.5174C88.9806 9.78356 92.1216 4.34776 97.1109 3.35097V3.34618Z" fill="#B4DCE6"/>
<path d="M118.431 6.0459C119.188 5.14757 120.232 4.45624 121.351 4.04273C122.479 3.62869 123.707 3.48287 124.92 3.55844C126.138 3.63348 127.328 3.94375 128.386 4.50362C129.444 5.06295 130.374 5.87666 131.023 6.87346C131.555 7.70102 131.847 8.60841 131.884 9.44554C131.917 9.65682 131.893 9.85905 131.875 10.0565C131.86 10.2545 131.856 10.4519 131.799 10.6302C131.757 10.8138 131.715 10.9926 131.672 11.1619C131.606 11.3215 131.541 11.4817 131.475 11.6318C131.371 11.9426 131.188 12.1821 131.061 12.4125C130.939 12.6477 130.793 12.8266 130.68 12.9766C130.459 13.2826 130.346 13.4753 130.384 13.5131C130.421 13.5551 130.605 13.4375 130.91 13.1884C131.066 13.0613 131.254 12.9112 131.423 12.6807C131.597 12.4551 131.827 12.2199 131.978 11.8904C132.063 11.7308 132.152 11.5615 132.246 11.3875C132.307 11.1949 132.373 10.9974 132.439 10.7952C132.519 10.5929 132.537 10.3673 132.57 10.1411C132.603 9.91121 132.641 9.67598 132.618 9.43117C132.618 8.45353 132.298 7.38596 131.696 6.45037C130.962 5.32159 129.928 4.42325 128.757 3.80272C127.582 3.18218 126.27 2.84371 124.962 2.76814C123.655 2.68352 122.315 2.84371 121.069 3.2998C119.823 3.76067 118.68 4.50787 117.805 5.54245C117.081 6.39822 116.663 7.40459 116.456 8.34018C116.263 9.28535 116.305 10.1699 116.475 10.8702C116.649 11.5754 116.94 12.0927 117.175 12.4125C117.425 12.7276 117.599 12.8638 117.641 12.8308C117.754 12.751 117.213 12.0597 117.034 10.7622C116.945 10.1177 116.969 9.33751 117.175 8.50516C117.396 7.68186 117.787 6.80268 118.421 6.05495L118.431 6.0459Z" fill="#9EBEC3"/>
<path d="M105.651 5.53346C104.776 4.49888 103.634 3.75115 102.388 3.29027C101.141 2.83419 99.8014 2.67453 98.4943 2.75915C97.1915 2.83898 95.8748 3.17266 94.6998 3.79373C93.5284 4.41426 92.4944 5.31207 91.7605 6.44085C91.1586 7.37644 90.8392 8.44401 90.8345 9.42218C90.8105 9.66645 90.8483 9.90168 90.8813 10.1321C90.9143 10.3626 90.9329 10.5834 91.0127 10.7857C91.0787 10.9879 91.1447 11.1853 91.2059 11.378C91.2996 11.552 91.389 11.7212 91.4736 11.8814C91.6242 12.2103 91.8595 12.4504 92.0287 12.6712C92.1979 12.9016 92.3858 13.057 92.5412 13.1789C92.8467 13.4333 93.0303 13.5461 93.0681 13.5036C93.1053 13.4615 92.9925 13.2683 92.7716 12.9676C92.6588 12.817 92.513 12.643 92.3906 12.4035C92.2639 12.1731 92.0803 11.9331 91.9771 11.6228C91.9159 11.4722 91.8499 11.3173 91.7796 11.1523C91.7371 10.9831 91.695 10.8043 91.6524 10.6212C91.5912 10.4424 91.5912 10.2449 91.5774 10.0475C91.5582 9.85006 91.5348 9.64783 91.5678 9.43601C91.6056 8.59941 91.8972 7.69149 92.4284 6.86394C93.0771 5.86714 94.0084 5.05342 95.0664 4.49409C96.1292 3.93475 97.3139 3.62395 98.5321 3.54892C99.7449 3.47388 100.967 3.6197 102.101 4.03321C103.225 4.44726 104.269 5.13857 105.021 6.03638C105.656 6.7841 106.046 7.66329 106.267 8.48606C106.474 9.31841 106.497 10.0991 106.408 10.7436C106.229 12.0411 105.684 12.7324 105.801 12.8122C105.844 12.8452 106.013 12.709 106.267 12.3939C106.502 12.0741 106.794 11.5568 106.968 10.8516C107.142 10.1507 107.179 9.26678 106.986 8.32161C106.779 7.38602 106.361 6.38443 105.637 5.52388L105.651 5.53346Z" fill="#9EBEC3"/>
<path d="M43.2748 106.166C45.908 103.768 49.1244 102.009 52.5664 101.088C54.4381 100.584 56.568 100.368 58.1949 101.417C59.8218 102.47 60.3343 105.225 58.7122 106.288" fill="#50BE82"/>
<path d="M79.3176 106.147C85.2611 101.022 95.0934 101.238 100.812 106.622L79.3176 106.147Z" fill="#50BE82"/>
<path d="M110.202 106.025C113.935 102.964 119.818 102.927 123.589 105.94L110.202 106.025Z" fill="#50BE82"/>
<path d="M162.679 106.588C161.795 105.686 162.19 104.044 163.187 103.264C164.184 102.484 165.547 102.375 166.808 102.446C170.363 102.643 173.837 104.044 176.527 106.377" fill="#50BE82"/>
<path d="M185.18 106.082C189.256 103.138 195.238 103.171 199.282 106.157L185.18 106.082Z" fill="#50BE82"/>
<path d="M18.0653 106.138C19.255 103.698 22.3585 102.687 25.0435 103.11C27.7284 103.533 30.0843 105.075 32.3178 106.618" fill="#50BE82"/>
<path d="M29.0599 104.106C27.8373 103.462 26.516 102.94 25.1195 102.719C23.7088 102.498 22.2511 102.639 20.9109 103.156C20.3561 103.373 19.8623 103.664 19.4485 103.975C19.0489 104.304 18.715 104.637 18.5034 104.967C18.0567 105.616 17.9768 106.105 18.0661 106.142C18.1789 106.194 18.4375 105.818 18.936 105.334C19.1805 105.084 19.5097 104.835 19.8811 104.577C20.2667 104.332 20.7087 104.101 21.2025 103.904C22.3921 103.443 23.7276 103.312 24.9925 103.514C26.2762 103.716 27.5129 104.2 28.6837 104.821C29.6524 105.333 30.5223 105.846 31.1712 106.194C31.8201 106.542 32.248 106.721 32.3138 106.627C32.375 106.537 32.0599 106.194 31.4863 105.719C30.9126 105.249 30.0709 104.647 29.0599 104.111V104.106Z" fill="#5DA279"/>
<path d="M138.538 2.49995C141.961 1.81342 145.464 2.49995 147.956 4.81339C150.449 7.12203 151.262 11.345 149.155 14.0719C146.151 17.9654 137.118 18.1208 133.6 14.9138C128.611 10.3572 132.448 3.72239 138.533 2.50473L138.538 2.49995Z" fill="white"/>
<path d="M131.334 12.3793C131.772 13.4985 132.51 14.4671 133.384 15.2478C134.287 16.061 135.383 16.5453 136.483 16.9077C137.588 17.2648 138.735 17.4622 139.888 17.5234C140.461 17.5798 141.04 17.5516 141.613 17.5516C142.187 17.5048 142.765 17.4814 143.334 17.3776C143.908 17.3116 144.468 17.1568 145.032 17.0248C145.582 16.8417 146.141 16.6773 146.668 16.4186C147.726 15.9295 148.742 15.2568 149.489 14.2978C150.209 13.3292 150.651 12.1584 150.731 10.9732C150.834 9.78378 150.637 8.58901 150.209 7.48897C149.856 6.5768 149.353 5.74923 148.737 5.05792C148.112 4.3666 147.411 3.83068 146.687 3.39801C145.239 2.53746 143.743 2.17983 142.502 2.06275C141.256 1.94993 140.245 2.06275 139.568 2.18941C138.886 2.3166 138.528 2.46242 138.538 2.50925C138.552 2.57046 138.929 2.53268 139.606 2.49968C140.278 2.47147 141.256 2.44326 142.436 2.62208C143.607 2.80569 144.99 3.20057 146.306 4.02813C146.96 4.43738 147.609 4.95893 148.149 5.57521C148.695 6.20053 149.146 6.95306 149.466 7.77582C150.256 9.746 150.134 12.1345 148.859 13.8087C148.22 14.6315 147.312 15.2382 146.339 15.6895C145.859 15.9295 145.333 16.0801 144.82 16.2536C144.289 16.376 143.762 16.5219 143.217 16.5878C142.681 16.6911 142.131 16.7102 141.585 16.7571C141.04 16.7571 140.49 16.7853 139.944 16.7289C138.853 16.6725 137.762 16.4798 136.732 16.1456C135.707 15.8119 134.701 15.3606 133.925 14.6549C133.13 13.9402 132.467 13.0706 132.087 12.0924C131.442 10.4607 131.696 8.68799 132.402 7.32878C133.088 5.94668 134.132 4.94509 135.082 4.24899C136.046 3.55767 136.939 3.158 137.565 2.91372C138.19 2.66892 138.557 2.56567 138.543 2.49968C138.533 2.45764 138.148 2.45284 137.47 2.61729C136.793 2.77748 135.83 3.11116 134.762 3.77906C133.714 4.45601 132.543 5.48101 131.743 6.98552C131.348 7.73325 131.043 8.5938 130.953 9.52513C130.85 10.4559 130.981 11.4479 131.334 12.3745V12.3793Z" fill="#E3DADA"/>
<path d="M167.428 2.50032C170.851 1.81379 174.354 2.50032 176.846 4.81375C179.339 7.1224 180.152 11.3448 178.045 14.0723C175.041 17.9658 166.008 18.1207 162.49 14.9142C157.501 10.3576 161.338 3.72276 167.423 2.50457L167.428 2.50032Z" fill="white"/>
<path d="M160.224 12.3793C160.661 13.4985 161.399 14.4671 162.274 15.2478C163.177 16.061 164.273 16.5453 165.373 16.9077C166.478 17.2648 167.625 17.4622 168.778 17.5234C169.351 17.5798 169.929 17.5516 170.503 17.5516C171.077 17.5048 171.655 17.4814 172.224 17.3776C172.798 17.3116 173.357 17.1568 173.922 17.0248C174.472 16.8417 175.031 16.6773 175.558 16.4186C176.616 15.9295 177.632 15.2568 178.379 14.2978C179.099 13.3292 179.541 12.1584 179.621 10.9732C179.724 9.78378 179.527 8.58901 179.099 7.48897C178.746 6.5768 178.243 5.74923 177.627 5.05792C177.002 4.3666 176.301 3.83068 175.577 3.39801C174.128 2.53746 172.633 2.17983 171.392 2.06275C170.146 1.94993 169.135 2.06275 168.458 2.18941C167.776 2.3166 167.418 2.46242 167.428 2.50925C167.442 2.57046 167.818 2.53268 168.495 2.49968C169.168 2.47147 170.146 2.44326 171.326 2.62208C172.497 2.80569 173.879 3.20057 175.196 4.02813C175.849 4.43738 176.499 4.95893 177.039 5.57521C177.585 6.20053 178.036 6.95306 178.356 7.77582C179.146 9.746 179.023 12.1345 177.749 13.8087C177.11 14.6315 176.202 15.2382 175.229 15.6895C174.749 15.9295 174.223 16.0801 173.71 16.2536C173.179 16.376 172.652 16.5219 172.107 16.5878C171.571 16.6911 171.02 16.7102 170.475 16.7571C169.929 16.7571 169.379 16.7853 168.834 16.7289C167.743 16.6725 166.652 16.4798 165.622 16.1456C164.597 15.8119 163.591 15.3606 162.815 14.6549C162.02 13.9402 161.357 13.0706 160.976 12.0924C160.332 10.4607 160.586 8.68799 161.291 7.32878C161.978 5.94668 163.022 4.94509 163.972 4.24899C164.936 3.55767 165.829 3.158 166.455 2.91372C167.08 2.66892 167.447 2.56567 167.433 2.49968C167.423 2.45764 167.037 2.45284 166.36 2.61729C165.688 2.77748 164.719 3.11116 163.652 3.77906C162.603 4.45601 161.432 5.48101 160.633 6.98552C160.238 7.73325 159.933 8.5938 159.843 9.52513C159.739 10.4559 159.871 11.4479 160.229 12.3745L160.224 12.3793Z" fill="#E3DADA"/>
<path d="M78.0105 1.04692C81.9178 0.261941 85.9199 1.04692 88.7597 3.685C91.6 6.32307 92.5308 11.1383 90.128 14.2511C86.7001 18.6949 76.3836 18.8732 72.3772 15.2149C66.6828 10.0143 71.0606 2.44393 78.0057 1.04692H78.0105Z" fill="#FFC8E1"/>
<path d="M69.843 12.3049C70.3369 13.5742 71.1788 14.67 72.166 15.5587C73.1862 16.4709 74.4278 17.0398 75.6785 17.4491C78.2085 18.2298 80.8791 18.3612 83.4751 17.9802C84.7726 17.7785 86.0562 17.4395 87.2696 16.8897C88.4735 16.3394 89.6209 15.5635 90.4623 14.4725C91.276 13.3767 91.7789 12.051 91.8683 10.7062C91.9439 10.0335 91.8827 9.35655 91.8029 8.69344C91.6852 8.03512 91.5346 7.3768 91.2808 6.75626C90.8811 5.72168 90.3074 4.7813 89.6113 3.99579C88.9061 3.21081 88.1068 2.59932 87.2883 2.11024C85.6427 1.13207 83.945 0.718553 82.5347 0.577522C81.1143 0.441281 79.9669 0.567946 79.191 0.704187C78.4156 0.84096 78.0063 1.00061 78.0159 1.04744C78.0297 1.11344 78.4576 1.05703 79.2288 1.01499C79.9999 0.977201 81.1191 0.939409 82.4687 1.13685C83.8088 1.34387 85.3937 1.79039 86.9078 2.73556C87.6555 3.20602 88.4027 3.79835 89.0285 4.51308C89.6539 5.2326 90.1754 6.09315 90.5378 7.04312C91.4452 9.30972 91.3042 12.051 89.8322 13.9834C89.0988 14.9334 88.0642 15.6433 86.9408 16.1558C85.812 16.6683 84.5943 16.993 83.3575 17.1856C80.8839 17.5523 78.3027 17.4161 75.9233 16.6827C74.7477 16.2969 73.6003 15.7657 72.7019 14.9568C71.7898 14.134 71.0282 13.1372 70.5907 12.0085C69.8478 10.1277 70.1442 8.08195 70.9526 6.53062C71.7429 4.94575 72.9468 3.79835 74.0378 3.00858C75.1474 2.22306 76.1676 1.76697 76.8871 1.49927C77.6066 1.22626 78.0249 1.11344 78.0111 1.04744C78.0015 1.0054 77.5641 1.0102 76.7929 1.20285C76.0266 1.39071 74.9265 1.77655 73.7179 2.54291C72.5279 3.31405 71.2022 4.48966 70.2943 6.1964C69.8478 7.04311 69.5045 8.02128 69.4061 9.07928C69.2885 10.1325 69.4385 11.2565 69.843 12.3049Z" fill="#EE9DC2"/>
<path d="M49.6092 1.04763C45.7016 0.26212 41.7 1.04764 38.8599 3.68571C36.015 6.32378 35.0887 11.1385 37.4915 14.2513C40.9195 18.6951 51.2362 18.8739 55.2427 15.2156C60.9371 10.0151 56.5593 2.4441 49.6139 1.04763H49.6092Z" fill="#FFC8E1"/>
<path d="M57.0292 12.0128C56.5923 13.1416 55.8302 14.1384 54.918 14.9612C54.0202 15.7653 52.8726 16.3018 51.697 16.6871C49.3177 17.4252 46.7362 17.5572 44.2628 17.19C43.0261 16.9973 41.8082 16.6732 40.6797 16.1602C39.5606 15.6477 38.5214 14.9377 37.7878 13.9878C36.316 12.0554 36.1797 9.31409 37.0825 7.04748C37.4492 6.09752 37.9665 5.23697 38.5919 4.51745C39.2173 3.80271 39.965 3.21038 40.7126 2.74046C42.2267 1.79528 43.8114 1.34345 45.1515 1.14175C46.5011 0.939521 47.6202 0.976769 48.3914 1.01934C49.1625 1.0566 49.5905 1.11355 49.6046 1.05235C49.6139 1.00977 49.2048 0.850109 48.429 0.713336C47.6531 0.577095 46.5058 0.450438 45.0857 0.586679C43.675 0.72771 41.9775 1.14175 40.3317 2.11938C39.5135 2.61326 38.7142 3.21996 38.0088 4.00494C37.3082 4.79045 36.7345 5.73084 36.3395 6.76542C36.0856 7.38596 35.9352 8.04428 35.8176 8.7026C35.7329 9.36571 35.6765 10.0427 35.7517 10.7153C35.8411 12.065 36.3442 13.3859 37.1577 14.4817C37.9994 15.5679 39.1468 16.3438 40.3505 16.8989C41.5637 17.4486 42.8474 17.7876 44.1452 17.9899C46.7409 18.3704 49.4164 18.2389 51.9416 17.4582C53.1926 17.0489 54.4337 16.48 55.4539 15.5679C56.4416 14.6743 57.2836 13.5839 57.7769 12.314C58.1766 11.2656 58.332 10.1416 58.2144 9.08843C58.1154 8.03043 57.7721 7.05227 57.3256 6.20556C56.423 4.49882 55.092 3.3232 53.9026 2.55206C52.6939 1.7857 51.5936 1.39987 50.8271 1.21201C50.056 1.02414 49.6187 1.01456 49.6093 1.0566C49.5952 1.12259 50.0137 1.23542 50.7331 1.50843C51.4526 1.78091 52.4729 2.23221 53.5827 3.01773C54.6737 3.8075 55.8727 4.9549 56.6673 6.53977C57.4762 8.09589 57.7721 10.1416 57.0292 12.0176V12.0128Z" fill="#EE9DC2"/>
<path d="M75.4898 73.1557C73.5526 70.6874 69.0194 61.0713 66.3532 58.9835C67.7262 58.165 71.1588 54.4082 72.137 53.3593C73.8629 51.5115 79.3647 44.3828 79.402 42.5111C79.4163 41.7165 78.3674 41.3547 77.7139 41.4861C76.8533 41.6649 76.5808 42.5021 76.1716 43.179C75.1934 44.8107 72.5511 48.8735 70.6793 51.0975C67.9284 54.3705 66.5086 56.007 64.2936 56.7919C64.209 55.4333 64.4868 50.9847 64.5384 49.4802C64.6134 47.2652 64.9993 42.9204 65.7374 41.7778C65.6246 41.6229 63.8423 40.1413 62.6997 41.4909C61.7827 42.5771 60.7955 46.9831 60.6965 48.7324C60.6544 49.5179 60.9977 50.4487 61.1009 50.7872C61.1999 51.6382 60.3814 60.6716 60.2638 62.6322C59.9583 67.8189 60.3484 71.6087 61.0775 73.2968C61.5805 74.4676 62.2622 74.9711 63.1227 74.9711C64.2936 74.9711 65.1451 74.1621 65.582 73.1275C64.8348 72.7656 64.6086 71.8907 64.3691 70.9174C63.8375 68.8014 64.2563 61.5838 64.1435 60.5066C65.2297 61.5838 68.3755 67.9174 69.0902 69.3048C70.2328 71.5193 72.5229 75.5916 74.3616 77.5288C75.4664 78.6953 76.675 79.3861 77.6809 79.3861C78.4712 79.3861 79.0965 79.1557 79.5622 78.6996C80.0273 78.2483 80.2577 77.6182 80.2577 76.8422C78.4994 76.8236 77.2157 75.3425 75.4946 73.151L75.4898 73.1557Z" fill="#F193BD"/>
<path d="M158.376 42.0509C158.772 38.1574 159.27 37.8045 158.894 37.2968C158.593 36.8923 156.801 36.6385 156.284 37.3059C155.038 39.1872 153.683 51.427 153.284 55.3248C150.035 53.1524 144.716 55.7484 143.833 64.6919C141.383 69.2719 139.055 70.711 137.136 70.7392C135.152 70.7674 133.737 68.4348 133.535 65.8531C136.224 66.1075 138.406 62.7638 138.806 60.5259C139.182 58.3908 138.322 55.3908 135.697 55.5228C132.745 55.6729 130.266 58.2593 129.857 63.8739C129.001 66.9771 127.506 70.7062 125.865 70.5886C124.417 70.4848 124.323 61.7249 124.403 59.0209C125.541 55.1603 126.373 48.7512 126.429 47.0774C127.878 47.0444 132.839 47.1104 133.967 47.0444C134.818 46.9976 134.165 45.2105 133.661 45.1967C131.908 45.1541 127.666 45.2435 126.429 45.2435C126.458 43.9971 126.646 40.3202 125.404 38.9801C124.765 38.2888 122.945 37.9456 122.155 38.8529C121.013 40.1696 120.665 42.2153 120.472 45.1919C120.072 45.1919 118.102 45.2387 117.726 45.2387C117.758 44.2323 118.003 41.0115 117.02 39.4176C116.461 38.5097 115.012 37.8045 113.635 38.6789C112.516 39.3894 111.81 42.0083 111.758 45.4457C111.246 45.5117 103.2 46.1227 102.617 46.2073C102.377 46.2403 102.086 46.4846 102.1 46.7246C102.157 47.6229 102.768 47.7687 103.422 47.7358C104.964 47.6698 111.392 47.3409 111.725 47.3733C111.533 51.187 111.509 58.3817 111.754 60.3987C110.921 60.8644 110.019 61.2406 108.961 61.5509C108.942 59.9144 108.284 56.6228 106.746 55.4238C106.177 54.9773 104.498 54.1353 103.074 55.1604C102.251 55.7527 101.855 57.2433 101.931 58.419C101.329 57.9677 99.9512 57.8548 99.0672 58.5648C98.0044 59.4205 97.7505 61.5083 97.84 63.3705C97.3599 64.3156 95.6016 67.2736 94.7272 67.8659C93.8991 68.4252 93.3259 68.1905 92.9496 67.1559C92.4744 65.8579 91.7831 62.5333 90.9933 60.85C90.4664 59.7356 89.5356 58.2545 88.0168 58.2545C86.7895 58.2545 85.7831 58.9836 85.1014 60.3002C85.2988 57.5914 85.12 55.8517 83.7331 55.6308C82.1153 55.377 81.2457 55.8139 81.3771 57.2625C81.5746 59.4301 80.6251 68.2517 82.1201 70.9366C82.5432 71.6934 83.0088 72.2293 84.3116 72.1921C85.6655 72.1543 86.0892 71.3171 85.9476 70.4944C85.7267 69.1825 85.5155 65.6509 85.7363 63.6621C85.9338 61.908 86.5777 60.3519 87.6969 60.4317C88.8443 60.5115 89.4558 62.9048 90.0013 65.4583C90.4292 67.4524 91.4026 68.9287 91.9151 69.3896C92.9305 70.3113 94.4403 70.0899 95.0843 69.8973C96.0199 69.62 97.6047 68.0399 98.0986 67.1091C98.3615 68.529 98.9027 70.0149 99.9746 71.0399C102.199 73.1654 105.41 72.6152 107.075 70.2123C108.058 68.7972 109.045 65.6089 109.012 63.3188C109.967 63.1826 110.936 62.8766 111.928 62.4067C112.073 66.1826 112.483 69.5492 114.011 71.3033C115.783 73.3395 118.441 72.8408 119.973 71.2373C120.575 70.6072 121.069 69.9537 121.516 69.1447C122.254 71.0729 123.378 72.9116 126.096 72.5492C128.823 72.1873 130.008 69.6152 130.511 68.562C131.381 70.612 133.713 72.5683 136.666 72.6152C139.901 72.662 142.149 70.9414 144.063 68.1432C144.561 69.5588 145.587 70.7999 148.065 70.786C150.834 70.7716 152.569 68.2751 153.797 64.1746C153.825 70.2831 154.699 75.8317 156.044 78.2016C156.994 79.8705 159.063 78.9631 160.455 78.2628C155.861 67.7249 157.549 50.129 158.372 42.0461L158.376 42.0509ZM103.478 69.8222C102.349 69.554 101.498 61.6307 102.185 59.3029C102.589 61.3018 104.414 63.6153 106.05 63.2576C105.674 65.2188 105.044 70.1937 103.473 69.8222H103.478ZM104.79 56.3876C105.843 56.2136 106.163 60.1683 106.233 60.949C104.296 59.8718 104.089 56.5052 104.79 56.3876ZM124.478 40.8657C125.117 40.9077 125.117 43.9785 125.056 45.1919C125.056 45.1919 124.365 45.1919 123.961 45.1919C123.942 44.3265 124.026 40.8375 124.474 40.8657H124.478ZM115.779 40.8657C116.423 40.9035 116.371 44.2185 116.348 45.2951H115.267C115.267 44.3217 115.313 40.8423 115.779 40.8657ZM115.295 54.4648C115.191 51.8735 115.243 48.112 115.243 47.6368C115.61 47.6181 115.962 47.5995 116.305 47.5803C116.188 49.3531 115.845 52.4941 115.29 54.46L115.295 54.4648ZM117.171 70.5886C115.661 70.5322 115.652 60.9346 115.708 59.0209C116.841 54.4834 117.491 50.3265 117.726 47.5053C118.595 47.4627 119.499 47.4207 120.444 47.3733C120.124 52.4286 120.157 59.4865 120.857 64.9175C120.26 66.7797 119.042 70.6546 117.171 70.5838V70.5886ZM123.993 54.4648C123.895 53.7357 123.933 49.7059 123.947 47.0913C123.947 47.0913 124.756 47.0913 125.028 47.0913C125.009 48.5021 124.525 52.203 123.998 54.4648H123.993ZM133.788 60.8974C134.268 58.6446 134.87 57.2295 135.937 57.0975C136.619 56.9804 136.831 58.4238 136.196 60.742C135.937 61.6871 135.082 64.2358 133.798 64.5791C133.069 64.7765 133.633 61.6403 133.788 60.8974ZM151.074 63.5211C150.764 64.4476 149.363 68.6418 148.088 68.6886C146.753 68.7403 147.209 63.5679 147.815 61.2497C148.774 57.5823 150.077 56.0305 150.721 55.9315C151.681 55.7857 152.687 56.8719 152.927 57.1401C152.861 57.4083 151.38 62.5945 151.074 63.5211Z" fill="#F193BD"/>
<path d="M164.447 74.4915C164.762 74.6698 165.011 74.9146 165.195 75.2248C165.378 75.5351 165.468 75.8693 165.468 76.2312C165.468 76.5931 165.378 76.9364 165.195 77.2424C165.011 77.5479 164.767 77.7921 164.447 77.971C164.132 78.1498 163.779 78.2392 163.394 78.2392C163.008 78.2392 162.655 78.1498 162.34 77.971C162.025 77.7921 161.776 77.5479 161.593 77.2424C161.41 76.9364 161.32 76.5979 161.32 76.2312C161.32 75.8645 161.41 75.5351 161.593 75.2248C161.776 74.9146 162.021 74.6746 162.34 74.4915C162.655 74.3127 163.008 74.2233 163.394 74.2233C163.779 74.2233 164.132 74.3127 164.447 74.4915ZM164.24 77.6373C164.489 77.4962 164.682 77.3031 164.819 77.0588C164.955 76.8145 165.025 76.5367 165.025 76.2264C165.025 75.9162 164.955 75.6479 164.819 75.4037C164.682 75.1589 164.489 74.9662 164.236 74.8252C163.986 74.6841 163.704 74.6134 163.389 74.6134C163.074 74.6134 162.792 74.6841 162.543 74.8252C162.294 74.9662 162.101 75.1589 161.959 75.4037C161.823 75.6479 161.753 75.9209 161.753 76.2264C161.753 76.5319 161.823 76.8145 161.959 77.0588C162.096 77.3031 162.289 77.4962 162.538 77.6373C162.787 77.7783 163.07 77.8485 163.389 77.8485C163.709 77.8485 163.991 77.7783 164.24 77.6373ZM164.17 76.1982C164.113 76.2924 164.029 76.3675 163.92 76.4148L164.4 77.12H163.869L163.441 76.4569H163.088V77.12H162.622V75.3047H163.676C163.854 75.3047 163.991 75.3611 164.099 75.4696C164.203 75.5777 164.259 75.7139 164.259 75.8784C164.259 75.996 164.231 76.104 164.17 76.1982ZM163.088 76.0524H163.587C163.647 76.0524 163.69 76.0386 163.728 76.0056C163.761 75.9726 163.779 75.93 163.779 75.8784C163.779 75.8268 163.761 75.7799 163.728 75.7517C163.695 75.7187 163.647 75.7043 163.587 75.7043H163.088V76.0572V76.0524Z" fill="#F193BD"/>
</svg>
