<svg width="56" height="20" viewBox="0 0 56 20" fill="none" xmlns="http://www.w3.org/2000/svg">
<g clip-path="url(#clip0_640_1769)">
<path d="M53.7388 4.98089L51.0541 11.0989L48.01 4.98089H45.6745L49.9761 13.4742L48.1996 17.4364H50.4652L55.9944 4.98089H53.7288H53.7388ZM44.377 14.4423H42.1514V13.554C41.3529 14.2427 40.3849 14.6319 39.2272 14.6319C36.5724 14.6319 34.4865 12.4662 34.4865 9.71158C34.4865 6.94702 36.5624 4.79126 39.2272 4.79126C40.3849 4.79126 41.343 5.17051 42.1514 5.86914V4.98089H44.377V14.4423ZM42.4209 9.71158C42.4209 7.9251 41.1734 6.57775 39.5266 6.57775C37.8799 6.57775 36.6322 7.93508 36.6322 9.71158C36.6322 11.4881 37.8799 12.8454 39.5266 12.8454C41.1734 12.8454 42.4209 11.4881 42.4209 9.71158ZM23.468 17.4364H25.7835V13.6439C26.562 14.2826 27.5002 14.6419 28.6081 14.6419C31.2629 14.6419 33.3488 12.4761 33.3488 9.72156C33.3488 6.96698 31.2729 4.80124 28.6081 4.80124C27.4503 4.80124 26.492 5.18049 25.6836 5.87912V4.99087H23.458V17.4464L23.468 17.4364ZM28.3286 6.57775C29.9754 6.57775 31.2228 7.93508 31.2228 9.71158C31.2228 11.4881 29.9754 12.8454 28.3286 12.8454C26.6818 12.8454 25.4341 11.4881 25.4341 9.71158C25.4341 7.93508 26.6818 6.57775 28.3286 6.57775Z" fill="black"/>
<path d="M19.3064 10.001C19.3064 15.3305 14.9849 19.652 9.6454 19.652C4.30586 19.652 -0.00585938 15.3305 -0.00585938 10.001C-0.00585938 4.67148 4.31584 0.339996 9.6454 0.339996C14.975 0.339996 19.3064 4.6615 19.3064 10.001ZM11.2621 5.45993V10.3204L7.88883 5.45993H5.10425V14.5321H8.02845V9.67165L11.402 14.5321H14.1863V5.45993H11.2621Z" fill="black"/>
</g>
<defs>
<clipPath id="clip0_640_1769">
<rect width="56.0004" height="20" fill="white"/>
</clipPath>
</defs>
</svg>
