<svg width="180" height="180" viewBox="0 0 180 180" fill="none" xmlns="http://www.w3.org/2000/svg">
<rect width="180" height="180" rx="70" fill="#EF97C3"/>
<g clip-path="url(#clip0_2150_1081)">
<path d="M93.9746 57.3111C92.9199 56.2577 91.4902 55.666 89.9996 55.666C88.5089 55.666 87.0793 56.2577 86.0246 57.3111L64.8033 78.5211C63.7481 79.5763 63.1553 81.0075 63.1553 82.4998C63.1553 83.9921 63.7481 85.4233 64.8033 86.4786C65.8586 87.5338 67.2898 88.1266 68.7821 88.1266C70.2744 88.1266 71.7056 87.5338 72.7608 86.4786L84.3746 74.8686V118.125C84.3746 119.617 84.9672 121.047 86.0221 122.102C87.077 123.157 88.5077 123.75 89.9996 123.75C91.4914 123.75 92.9222 123.157 93.9771 122.102C95.0319 121.047 95.6246 119.617 95.6246 118.125V74.8686L107.235 86.4786C107.757 87.0011 108.377 87.4155 109.06 87.6983C109.743 87.9811 110.474 88.1266 111.213 88.1266C111.952 88.1266 112.684 87.9811 113.367 87.6983C114.049 87.4155 114.67 87.0011 115.192 86.4786C115.715 85.9561 116.129 85.3358 116.412 84.6531C116.695 83.9704 116.84 83.2387 116.84 82.4998C116.84 81.7609 116.695 81.0292 116.412 80.3465C116.129 79.6639 115.715 79.0436 115.192 78.5211L93.9746 57.3111Z" fill="white"/>
</g>
<defs>
<clipPath id="clip0_2150_1081">
<rect width="90" height="90" fill="white" transform="translate(45 45)"/>
</clipPath>
</defs>
</svg>
